HIERARCHY
ROOT Hips
{
	OFFSET 0.000000 0.000000 0.000000
	CHANNELS 6 Xposition Yposition Zposition Xrotation Yrotation Zrotation
	JOINT Thigh.L
	{
		OFFSET 0.055641 0.027010 -0.095679
		CHANNELS 3 Xrotation Yrotation Zrotation
		JOINT Shin.L
		{
			OFFSET 0.059955 0.006616 -0.411445
			CHANNELS 3 Xrotation Yrotation Zrotation
			JOINT Foot.L
			{
				OFFSET -0.042164 0.032395 -0.436576
				CHANNELS 3 Xrotation Yrotation Zrotation
				JOINT Toe.L
				{
					OFFSET 0.048322 -0.126560 -0.064022
					CHANNELS 3 Xrotation Yrotation Zrotation
					End Site
					{
						OFFSET 0.000000 0.050000 0.000000
					}
				}
			}
		}
	}
	JOINT Thigh.R
	{
		OFFSET -0.060754 0.021278 -0.108362
		CHANNELS 3 Xrotation Yrotation Zrotation
		JOINT Shin.R
		{
			OFFSET -0.048974 0.014708 -0.392747
			CHANNELS 3 Xrotation Yrotation Zrotation
			JOINT Foot.R
			{
				OFFSET 0.014005 0.020500 -0.445583
				CHANNELS 3 Xrotation Yrotation Zrotation
				JOINT Toe.R
				{
					OFFSET -0.039702 -0.127390 -0.063900
					CHANNELS 3 Xrotation Yrotation Zrotation
					End Site
					{
						OFFSET 0.000000 0.050000 0.000000
					}
				}
			}
		}
	}
	JOINT Spine
	{
		OFFSET -0.002637 0.027630 0.114935
		CHANNELS 3 Xrotation Yrotation Zrotation
		JOINT Spine.2
		{
			OFFSET 0.009274 0.006475 0.143128
			CHANNELS 3 Xrotation Yrotation Zrotation
			JOINT Chest
			{
				OFFSET -0.011033 -0.023820 0.056893
				CHANNELS 3 Xrotation Yrotation Zrotation
				JOINT Neck
				{
					OFFSET -0.012395 0.026168 0.170871
					CHANNELS 3 Xrotation Yrotation Zrotation
					JOINT Head
					{
						OFFSET 0.025627 -0.020482 0.168895
						CHANNELS 3 Xrotation Yrotation Zrotation
						End Site
						{
							OFFSET 0.000000 0.050000 0.000000
						}
					}
				}
				JOINT Clavicle.L
				{
					OFFSET 0.047921 0.004469 0.088052
					CHANNELS 3 Xrotation Yrotation Zrotation
					JOINT UpperArm.L
					{
						OFFSET 0.128574 0.013832 0.058711
						CHANNELS 3 Xrotation Yrotation Zrotation
						JOINT ForeArm.L
						{
							OFFSET 0.269347 0.043543 -0.075318
							CHANNELS 3 Xrotation Yrotation Zrotation
							JOINT Hand.L
							{
								OFFSET 0.272674 0.000536 0.022678
								CHANNELS 3 Xrotation Yrotation Zrotation
								JOINT Thumb1.L
								{
									OFFSET 0.154587 0.000235 0.009946
									CHANNELS 3 Xrotation Yrotation Zrotation
									JOINT Thumb2.L
									{
										OFFSET 0.029897 0.000059 0.002486
										CHANNELS 3 Xrotation Yrotation Zrotation
										End Site
										{
											OFFSET 0.024914 0.000049 0.002072
										}
									}
								}
								JOINT Index1.L
								{
									OFFSET 0.137587 0.000235 0.009946
									CHANNELS 3 Xrotation Yrotation Zrotation
									JOINT Index2.L
									{
										OFFSET 0.029897 0.000059 0.002486
										CHANNELS 3 Xrotation Yrotation Zrotation
										JOINT Index3.L
										{
											OFFSET 0.021924 0.000043 0.001823
											CHANNELS 3 Xrotation Yrotation Zrotation
											End Site
											{
												OFFSET 0.017938 0.000035 0.001492
											}
										}
									}
								}
								JOINT Middle1.L
								{
									OFFSET 0.119587 0.000235 0.009946
									CHANNELS 3 Xrotation Yrotation Zrotation
									JOINT Middle2.L
									{
										OFFSET 0.030893 0.000061 0.002569
										CHANNELS 3 Xrotation Yrotation Zrotation
										JOINT Middle3.L
										{
											OFFSET 0.021924 0.000043 0.001823
											CHANNELS 3 Xrotation Yrotation Zrotation
											End Site
											{
												OFFSET 0.017938 0.000035 0.001492
											}
										}
									}
								}
								JOINT Ring1.L
								{
									OFFSET 0.101587 0.000235 0.009946
									CHANNELS 3 Xrotation Yrotation Zrotation
									JOINT Ring2.L
									{
										OFFSET 0.028900 0.000057 0.002404
										CHANNELS 3 Xrotation Yrotation Zrotation
										JOINT Ring3.L
										{
											OFFSET 0.019931 0.000039 0.001658
											CHANNELS 3 Xrotation Yrotation Zrotation
											End Site
											{
												OFFSET 0.016941 0.000033 0.001409
											}
										}
									}
								}
								JOINT Pinky1.L
								{
									OFFSET 0.085587 0.000235 0.009946
									CHANNELS 3 Xrotation Yrotation Zrotation
									JOINT Pinky2.L
									{
										OFFSET 0.023917 0.000047 0.001989
										CHANNELS 3 Xrotation Yrotation Zrotation
										JOINT Pinky3.L
										{
											OFFSET 0.016941 0.000033 0.001409
											CHANNELS 3 Xrotation Yrotation Zrotation
											End Site
											{
												OFFSET 0.013952 0.000027 0.001160
											}
										}
									}
								}
							}
						}
					}
				}
				JOINT Clavicle.R
				{
					OFFSET -0.049022 0.010628 0.087182
					CHANNELS 3 Xrotation Yrotation Zrotation
					JOINT UpperArm.R
					{
						OFFSET -0.111476 0.010486 0.054800
						CHANNELS 3 Xrotation Yrotation Zrotation
						JOINT ForeArm.R
						{
							OFFSET -0.287822 0.027903 -0.039235
							CHANNELS 3 Xrotation Yrotation Zrotation
							JOINT Hand.R
							{
								OFFSET -0.269008 0.014054 -0.005370
								CHANNELS 3 Xrotation Yrotation Zrotation
								JOINT Thumb1.R
								{
									OFFSET -0.154813 0.006260 -0.002392
									CHANNELS 3 Xrotation Yrotation Zrotation
									JOINT Thumb2.R
									{
										OFFSET -0.029953 0.001565 -0.000598
										CHANNELS 3 Xrotation Yrotation Zrotation
										End Site
										{
											OFFSET -0.024961 0.001304 -0.000498
										}
									}
								}
								JOINT Index1.R
								{
									OFFSET -0.137813 0.006260 -0.002392
									CHANNELS 3 Xrotation Yrotation Zrotation
									JOINT Index2.R
									{
										OFFSET -0.029953 0.001565 -0.000598
										CHANNELS 3 Xrotation Yrotation Zrotation
										JOINT Index3.R
										{
											OFFSET -0.021966 0.001148 -0.000438
											CHANNELS 3 Xrotation Yrotation Zrotation
											End Site
											{
												OFFSET -0.017972 0.000939 -0.000359
											}
										}
									}
								}
								JOINT Middle1.R
								{
									OFFSET -0.119813 0.006260 -0.002392
									CHANNELS 3 Xrotation Yrotation Zrotation
									JOINT Middle2.R
									{
										OFFSET -0.030952 0.001617 -0.000618
										CHANNELS 3 Xrotation Yrotation Zrotation
										JOINT Middle3.R
										{
											OFFSET -0.021966 0.001148 -0.000438
											CHANNELS 3 Xrotation Yrotation Zrotation
											End Site
											{
												OFFSET -0.017972 0.000939 -0.000359
											}
										}
									}
								}
								JOINT Ring1.R
								{
									OFFSET -0.101813 0.006260 -0.002392
									CHANNELS 3 Xrotation Yrotation Zrotation
									JOINT Ring2.R
									{
										OFFSET -0.028955 0.001513 -0.000578
										CHANNELS 3 Xrotation Yrotation Zrotation
										JOINT Ring3.R
										{
											OFFSET -0.019969 0.001043 -0.000399
											CHANNELS 3 Xrotation Yrotation Zrotation
											End Site
											{
												OFFSET -0.016973 0.000887 -0.000339
											}
										}
									}
								}
								JOINT Pinky1.R
								{
									OFFSET -0.085813 0.006260 -0.002392
									CHANNELS 3 Xrotation Yrotation Zrotation
									JOINT Pinky2.R
									{
										OFFSET -0.023963 0.001252 -0.000478
										CHANNELS 3 Xrotation Yrotation Zrotation
										JOINT Pinky3.R
										{
											OFFSET -0.016973 0.000887 -0.000339
											CHANNELS 3 Xrotation Yrotation Zrotation
											End Site
											{
												OFFSET -0.013978 0.000730 -0.000279
											}
										}
									}
								}
							}
						}
					}
				}
			}
		}
	}
}
MOTION
Frames: 4
Frame Time: 0.04166667
-0.008069 -1.331775 1.019741 -3.169545 1.890662 6.897506 9.037879 -2.615113 1.809837 26.574338 0.050214 -19.401649 -12.965645 -1.740983 8.103060 -0.460898 -0.808502 -1.097147 -24.826110 -4.705146 3.495640 23.910469 -2.428810 -0.669651 -1.865074 -0.692565 -8.863216 -1.242522 -1.295212 0.726496 11.807119 -1.124708 -4.084751 -2.783819 -2.645042 -2.103255 2.582694 -0.070782 -1.893781 5.765796 0.452649 -1.127013 0.257404 -0.518678 0.803712 0.998239 23.803348 -4.151929 20.924150 42.841868 -25.946910 10.852125 -3.453797 -26.495322 -1.339620 1.435463 -6.859547 0.000000 0.000000 0.000000 0.000000 0.000000 0.000000 0.000000 0.000000 0.000000 0.000000 0.000000 0.000000 0.000000 0.000000 0.000000 0.000000 0.000000 0.000000 0.000000 0.000000 0.000000 0.000000 0.000000 0.000000 0.000000 0.000000 0.000000 0.000000 0.000000 0.000000 0.000000 0.000000 0.000000 0.000000 0.000000 0.000000 0.000000 0.000000 0.000000 0.000000 0.000000 0.000000 0.446929 -21.983886 6.915800 22.770043 -43.180745 22.378183 6.834129 2.618416 28.152606 -3.129192 -6.101169 4.239789 0.000000 0.000000 0.000000 0.000000 0.000000 0.000000 0.000000 0.000000 0.000000 0.000000 0.000000 0.000000 0.000000 0.000000 0.000000 0.000000 0.000000 0.000000 0.000000 0.000000 0.000000 0.000000 0.000000 0.000000 0.000000 0.000000 0.000000 0.000000 0.000000 0.000000 0.000000 0.000000 0.000000 0.000000 0.000000 0.000000 0.000000 0.000000 0.000000 0.000000 0.000000 0.000000
-0.017410 -1.379109 1.017674 -3.932557 1.951677 7.368552 11.292792 -1.805436 1.964783 20.320199 -0.068966 -20.139886 -17.765547 -4.265026 8.525186 -0.570422 -0.859707 -1.098595 -26.368467 -3.997442 3.958174 23.200386 -2.121798 -0.833569 1.353083 -3.175303 -9.504747 -1.134463 -1.406641 0.752251 12.743342 -0.836391 -4.595284 -3.236650 -2.539681 -2.033344 2.814657 -0.335218 -2.006801 5.280405 0.497170 -0.937903 -0.073417 -0.681688 1.370892 0.679617 23.425037 -4.247390 20.576978 42.716768 -26.720633 10.680546 -3.439405 -26.943456 -1.439744 1.613658 -6.996188 0.000000 0.000000 0.000000 0.000000 0.000000 0.000000 0.000000 0.000000 0.000000 0.000000 0.000000 0.000000 0.000000 0.000000 0.000000 0.000000 0.000000 0.000000 0.000000 0.000000 0.000000 0.000000 0.000000 0.000000 0.000000 0.000000 0.000000 0.000000 0.000000 0.000000 0.000000 0.000000 0.000000 0.000000 0.000000 0.000000 0.000000 0.000000 0.000000 0.000000 0.000000 0.000000 0.011243 -21.769700 6.725869 23.157062 -43.303170 23.399949 6.104315 2.751250 28.091323 -2.620583 -6.150840 4.026158 0.000000 0.000000 0.000000 0.000000 0.000000 0.000000 0.000000 0.000000 0.000000 0.000000 0.000000 0.000000 0.000000 0.000000 0.000000 0.000000 0.000000 0.000000 0.000000 0.000000 0.000000 0.000000 0.000000 0.000000 0.000000 0.000000 0.000000 0.000000 0.000000 0.000000 0.000000 0.000000 0.000000 0.000000 0.000000 0.000000 0.000000 0.000000 0.000000 0.000000 0.000000 0.000000
-0.026159 -1.425229 1.016942 -4.763869 2.005130 7.521517 11.832532 -1.203139 2.035102 17.080474 0.103242 -20.313810 -21.142758 -6.173180 7.917946 -0.576569 -0.858638 -1.097546 -27.226789 -3.276006 3.904833 21.546388 -1.749864 -1.064319 3.729144 -5.271630 -9.380557 -1.151145 -1.437312 0.731692 13.681531 -0.409518 -4.649929 -3.600964 -2.490816 -1.957313 3.040410 -0.588398 -2.067574 4.761762 0.473124 -0.949597 -0.561560 -0.985091 1.538317 0.424803 23.032385 -4.516586 20.562238 42.691486 -27.464457 10.424331 -3.361336 -27.280928 -1.477692 1.440741 -6.975580 0.000000 0.000000 0.000000 0.000000 0.000000 0.000000 0.000000 0.000000 0.000000 0.000000 0.000000 0.000000 0.000000 0.000000 0.000000 0.000000 0.000000 0.000000 0.000000 0.000000 0.000000 0.000000 0.000000 0.000000 0.000000 0.000000 0.000000 0.000000 0.000000 0.000000 0.000000 0.000000 0.000000 0.000000 0.000000 0.000000 0.000000 0.000000 0.000000 0.000000 0.000000 0.000000 -0.278557 -21.442773 6.723544 23.279280 -43.419686 23.782661 5.729199 2.792738 28.612345 -2.288685 -6.196775 3.852246 0.000000 0.000000 0.000000 0.000000 0.000000 0.000000 0.000000 0.000000 0.000000 0.000000 0.000000 0.000000 0.000000 0.000000 0.000000 0.000000 0.000000 0.000000 0.000000 0.000000 0.000000 0.000000 0.000000 0.000000 0.000000 0.000000 0.000000 0.000000 0.000000 0.000000 0.000000 0.000000 0.000000 0.000000 0.000000 0.000000 0.000000 0.000000 0.000000 0.000000 0.000000 0.000000
-0.031746 -1.465179 1.017180 -5.679336 1.995177 7.461826 11.966792 -0.711927 2.078938 14.833630 0.452678 -20.177611 -22.870908 -7.542403 7.755302 -0.577623 -0.885234 -1.108393 -27.546130 -2.601279 3.718129 19.676759 -1.586487 -1.305351 3.186953 -6.012637 -9.034450 -1.103682 -1.474272 0.746341 14.464772 -0.000790 -4.541296 -3.831806 -2.372155 -1.903017 3.255658 -0.825635 -2.048392 4.495054 0.547238 -0.943874 -0.929141 -1.240889 1.613000 0.148840 22.676967 -4.737363 20.585901 42.742118 -27.978544 10.522367 -3.282113 -27.216448 -1.378629 1.222729 -6.937005 0.000000 0.000000 0.000000 0.000000 0.000000 0.000000 0.000000 0.000000 0.000000 0.000000 0.000000 0.000000 0.000000 0.000000 0.000000 0.000000 0.000000 0.000000 0.000000 0.000000 0.000000 0.000000 0.000000 0.000000 0.000000 0.000000 0.000000 0.000000 0.000000 0.000000 0.000000 0.000000 0.000000 0.000000 0.000000 0.000000 0.000000 0.000000 0.000000 0.000000 0.000000 0.000000 -0.523507 -21.120773 6.762102 23.285425 -43.703918 24.025307 5.204329 2.856171 28.967494 -2.050001 -6.123202 3.632471 0.000000 0.000000 0.000000 0.000000 0.000000 0.000000 0.000000 0.000000 0.000000 0.000000 0.000000 0.000000 0.000000 0.000000 0.000000 0.000000 0.000000 0.000000 0.000000 0.000000 0.000000 0.000000 0.000000 0.000000 0.000000 0.000000 0.000000 0.000000 0.000000 0.000000 0.000000 0.000000 0.000000 0.000000 0.000000 0.000000 0.000000 0.000000 0.000000 0.000000 0.000000 0.000000
